<svg width="26" height="26" viewBox="0 0 26 26" fill="none" xmlns="http://www.w3.org/2000/svg">
<g id="Toggle/check2-circle">
<g id="Union">
<path d="M5.25939 8.53213C4.47506 9.891 4.06227 11.4324 4.06251 13.0014C4.06251 15.3717 5.00414 17.645 6.68025 19.3211C8.35635 20.9972 10.6296 21.9389 13 21.9389C15.3704 21.9389 17.6437 20.9972 19.3198 19.3211C20.9959 17.645 21.9375 15.3717 21.9375 13.0014C21.9375 12.7859 22.0231 12.5792 22.1755 12.4268C22.3279 12.2745 22.5345 12.1889 22.75 12.1889C22.9655 12.1889 23.1722 12.2745 23.3245 12.4268C23.4769 12.5792 23.5625 12.7859 23.5625 13.0014C23.5622 15.3265 22.7947 17.5865 21.3791 19.431C19.9634 21.2755 17.9788 22.6013 15.7328 23.2029C13.4869 23.8044 11.1052 23.6481 8.95714 22.7582C6.80909 21.8682 5.01471 20.2944 3.85228 18.2807C2.68986 16.267 2.22435 13.926 2.52794 11.6208C2.83154 9.31562 3.88729 7.17501 5.53144 5.53096C7.17559 3.88691 9.31628 2.83131 11.6215 2.52786C13.9267 2.22441 16.2677 2.69007 18.2813 3.85262C18.4664 3.96113 18.601 4.13845 18.6559 4.34588C18.7107 4.5533 18.6813 4.774 18.574 4.95981C18.4667 5.14562 18.2903 5.28145 18.0832 5.33767C17.8762 5.39388 17.6553 5.36592 17.4688 5.25987C16.11 4.47538 14.5686 4.06241 12.9997 4.06247C11.4307 4.06254 9.88937 4.47563 8.53066 5.26022C7.17195 6.04482 6.04372 7.17327 5.25939 8.53213Z" fill="#52C41A"/>
<path d="M25.1276 5.18735C25.0867 5.28605 25.0268 5.37573 24.9513 5.45128L13.5763 16.8263C13.5008 16.9019 13.4111 16.962 13.3124 17.0029C13.2137 17.0439 13.1079 17.065 13.001 17.065C12.8942 17.065 12.7883 17.0439 12.6896 17.0029C12.5909 16.962 12.5013 16.9019 12.4258 16.8263L7.55078 11.9513C7.47523 11.8757 7.41531 11.7861 7.37443 11.6873C7.33354 11.5886 7.3125 11.4829 7.3125 11.376C7.3125 11.2692 7.33354 11.1634 7.37443 11.0647C7.41531 10.966 7.47523 10.8763 7.55078 10.8008C7.62632 10.7252 7.716 10.6653 7.8147 10.6244C7.9134 10.5835 8.01919 10.5625 8.12603 10.5625C8.23286 10.5625 8.33865 10.5835 8.43735 10.6244C8.53605 10.6653 8.62573 10.7252 8.70128 10.8008L13.001 15.1022L23.8008 4.30078C23.8763 4.22523 23.966 4.16531 24.0647 4.12443C24.1634 4.08354 24.2692 4.0625 24.376 4.0625C24.4829 4.0625 24.5886 4.08354 24.6873 4.12443C24.7861 4.16531 24.8757 4.22523 24.9513 4.30078C25.0268 4.37632 25.0867 4.466 25.1276 4.5647C25.1685 4.6634 25.1896 4.76919 25.1896 4.87603C25.1896 4.98286 25.1685 5.08865 25.1276 5.18735Z" fill="#52C41A"/>
</g>
</g>
</svg>
